# xmcd CD database file
#
# Track frame offsets:
#	150
#	16167
#	33628
#	53682
#	67243
#	91716
#	115023
#	150121
#	168548
#	194223
#
# Disc length: 2988 seconds
#
# Revision: 0
# Processed by: cddbd v1.5.2PL0 Copyright (c) Steve Scherf et al.
# Submitted via: CDex 1.70beta2
#
DISCID=7b0baa0a
DTITLE=Kirk Fletcher - My Turn
DYEAR=2010
DGENRE=Blues
TTITLE0=El Medio Stomp
TTITLE1=Found Love
TTITLE2=Natural Anthem
TTITLE3=Ain't No Way
TTITLE4=My Turn
TTITLE5=Congo Square
TTITLE6=Way Back Home
TTITLE7=Blues For Antone
TTITLE8=Let Me Have It All
TTITLE9=Continents End
EXTD=YEAR: 2010
EXTT0=
EXTT1=
EXTT2=
EXTT3=
EXTT4=
EXTT5=
EXTT6=
EXTT7=
EXTT8=
EXTT9=
PLAYORDER=
